<?xml version="1.0" encoding="utf-8"?>
<!-- Generator: Adobe Illustrator 19.2.1, SVG Export Plug-In . SVG Version: 6.00 Build 0)  -->
<svg version="1.1" id="Layer_1" xmlns="http://www.w3.org/2000/svg" xmlns:xlink="http://www.w3.org/1999/xlink" x="0px" y="0px"
	 viewBox="0 0 442.1 443.5" style="enable-background:new 0 0 442.1 443.5;" xml:space="preserve">
<style type="text/css">
	.st0{fill:#F2D85A;}
	.st1{stroke:#000000;stroke-width:3;stroke-miterlimit:10;}
	.st2{fill:#99CECC;stroke:#000000;stroke-width:6;stroke-miterlimit:10;}
	.st3{fill:#2DAAA7;stroke:#000000;stroke-width:6;stroke-miterlimit:10;}
	.st4{fill:none;stroke:#4BB2AD;stroke-width:6;stroke-miterlimit:10;}
	.st5{fill:#F5403C;stroke:#000000;stroke-width:3;stroke-miterlimit:10;}
	.st6{fill:none;stroke:#000000;stroke-width:3;stroke-miterlimit:10;}
	.st7{fill:#0C8787;stroke:#000000;stroke-width:6;stroke-miterlimit:10;}
	.st8{fill:#1A635E;stroke:#000000;stroke-width:4;stroke-miterlimit:10;}
	.st9{fill:#FFFFFF;stroke:#000000;stroke-width:4;stroke-miterlimit:10;}
	.st10{fill:none;stroke:#000000;stroke-width:2;stroke-miterlimit:10;}
	.st11{fill:#F5403C;stroke:#000000;stroke-width:6;stroke-miterlimit:10;}
	.st12{fill:#1A635E;stroke:#000000;stroke-width:6;stroke-miterlimit:10;}
	.st13{fill:none;stroke:#4BB2AD;stroke-width:3;stroke-miterlimit:10;}
	.st14{fill:#8AA8A7;stroke:#000000;stroke-width:3;stroke-miterlimit:10;}
	.st15{opacity:0.8;fill:#74CECC;stroke:#000000;stroke-width:3;stroke-miterlimit:10;}
</style>
<circle class="st0" cx="221.3" cy="222.7" r="220.8"/>
<g>
	<path class="st1" d="M111.4,184.9c0,0-1.8-6.7,3.1-6.7c4.9,0,4.8,0.8,5.2,6.1"/>
	<path class="st2" d="M101,204v-13c0,0,0-7.7,13.7-7.3c13.7,0.3,15,4.8,15,4.8l0.8,15.5l-29.5-0.5"/>
	<path class="st3" d="M135.3,55.3c0,0,51.9-12,86.6-10s85.4,10,85.4,10s20,94.7,0,100.7c0,0-11.8,5.3-81.6,4.7
		c-69.8-0.7-90.4-4-90.4-4S116.7,150,135.3,55.3z"/>
	<path class="st4" d="M146.7,67.3c0,0,54.7-16,147.3,0"/>
	<polygon class="st5" points="200.3,120.7 222,99.7 243.3,120.7 222,142.7 	"/>
	<line class="st6" x1="211" y1="116.5" x2="233" y2="116.5"/>
	<line class="st6" x1="211" y1="121.5" x2="233" y2="121.5"/>
	<line class="st6" x1="211" y1="125.5" x2="233" y2="125.5"/>
	<path class="st7" d="M131.4,152c0,0-5.1,138,12.9,145s72,8,81.3,8c9.3,0,70.7-2.3,76.3-7s8.3-17.3,7.7-33
		c-0.7-15.7,2.4-113,2.4-113s0.6,6.7-32.7,7.7s-126,1.7-144-3L131.4,152z"/>
	<path class="st3" d="M174,221v36c0,0,0.2,10.5,9.7,10.8c9.5,0.3,74.9,0,74.9,0s10.1-0.9,10.8-8.2c0.7-7.3,0.1-36.6,0.1-36.6H267
		l-91.5-1L174,221z"/>
	<path class="st8" d="M150,161v20c0,0-0.2,6,5.5,6s5.5-5.7,5.5-5.7V161H150z"/>
	<path class="st9" d="M185,223v20c0,0-0.2,6,5.5,6s5.5-5.7,5.5-5.7V223H185z"/>
	<path class="st9" d="M250,223v20c0,0-0.2,6,5.5,6c5.7,0,5.5-5.7,5.5-5.7V223H250z"/>
	<path class="st8" d="M294,161v20c0,0,0.2,6-5.5,6s-5.5-5.7-5.5-5.7V161H294z"/>
	<path class="st7" d="M173.4,193.6c0,0,28.3-3.1,47.9-2.8s47.8,2.6,47.8,2.6s0.9,0.9,0.9,3.9s0,19.7,0,19.7s0.8,5-2.5,5H176
		c0,0-3.8-2-3.8-4.5S171.4,193.8,173.4,193.6z"/>
	<path class="st10" d="M188,259.6c0,0,39.3-5,69,0"/>
	<rect x="204" y="197.7" class="st5" width="36.7" height="16.7"/>
	<path class="st11" d="M312,351.3H133.6c-6.6,0-12-5.4-12-12v-32.7c0-6.6,5.4-12,12-12H312c6.6,0,12,5.4,12,12v32.7
		C324,345.9,318.6,351.3,312,351.3z"/>
	<path class="st12" d="M160.8,294.6c0,0-12.8,0.2-12.8,6l-0.8,47c0,0,0.5,4.4,4,4.4H166c0,0-3-3.4-3-4.7V300c0,0,2-5.3,6.5-5.3
		L160.8,294.6z"/>
	<path class="st12" d="M283.2,294.6c0,0,12.8,0.2,12.8,6l0.8,47c0,0-0.5,4.4-4,4.4H278c0,0,2-3.4,2-4.7V300c0,0-1.5-5.3-6-5.3
		L283.2,294.6z"/>
	<path class="st12" d="M154.9,352c0,0,2.6,4.3,2.6,8.8s-3.9,15.2-3.9,15.2H167c0,0,2.8-12.4,2.2-15.2c-0.7-2.8-1.2-8.8-1.2-8.8
		H154.9z"/>
	<path class="st12" d="M287,352c0,0-2.6,4.3-2.6,8.8s3.9,15.2,3.9,15.2h-13.3c0,0-2.8-12.4-2.2-15.2c0.7-2.8,1.2-8.8,1.2-8.8H287z"
		/>
	<path class="st3" d="M99,204l3.2,51.2c0,0-1.4,18.7,32.2,15c0,0-4.7-49.3-3.9-66.3H99z"/>
	<path class="st13" d="M120.7,211c0,0-0.9,43.9,2.6,47.3"/>
	<path class="st7" d="M311,173h21.3c0,0,16.8,1,13.8,31H311V173z"/>
	<path class="st3" d="M343.3,205l-3.2,51.2c0,0,3.4,18.7-30.2,15c0,0,1.7-49.3,0.9-66.3H343.3z"/>
	<path class="st13" d="M321.6,212c0,0,0.9,43.9-2.6,47.3"/>
	<polyline class="st5" points="97.2,203.5 91.8,214.6 100.8,216.9 102,203.5 97,203.5 	"/>
	<polyline class="st5" points="340.9,205.3 342.5,217.9 351.4,215.5 344.8,204.9 341.9,205.3 	"/>
	<polyline class="st14" points="112.5,185 112.5,204 117.5,204 117.5,184.5 112,184.5 	"/>
	<path class="st15" d="M102.5,196v7.5l26.6,0.5l-0.3-8.2c0,0,0,0-5.1,0.6c-5,0.6-4-0.8-7-0.8c-2.9,0-3.4-0.3-6.7,1.2s-7-1.1-7-1.1
		L102.5,196z"/>
	<path d="M101,191l28.8-0.2C129.8,190.8,114.8,177.5,101,191"/>
</g>
<ellipse class="st12" cx="222.2" cy="403" rx="87.7" ry="3"/>
<circle cx="191.5" cy="244.9" r="2.1"/>
<polyline class="st8" points="185,239.2 192.3,236.4 196,236.8 196,223 185,223 185,239 "/>
<circle cx="254.5" cy="244.9" r="2.1"/>
<polyline class="st8" points="261,239.2 253.7,236.4 250,236.8 250,223 261,223 261,239 "/>
</svg>
