<?xml version="1.0" encoding="utf-8"?>
<!-- Generator: Adobe Illustrator 19.2.1, SVG Export Plug-In . SVG Version: 6.00 Build 0)  -->
<svg version="1.1" id="Layer_1" xmlns="http://www.w3.org/2000/svg" xmlns:xlink="http://www.w3.org/1999/xlink" x="0px" y="0px"
	 viewBox="0 0 62 48" style="enable-background:new 0 0 62 48;" xml:space="preserve">
<style type="text/css">
	.st0{fill:#969696;}
</style>
<path class="st0" d="M47,0c-7.5,0-10.9,4.5-16,9.4C25.9,4.5,22.5,0,15,0C6.6,0,0,6.6,0,15c0,13.2,25.3,31.7,31,33
	c5.7-1.3,31-19.8,31-33C62,6.6,55.4,0,47,0z M15,6c-5,0-9,4-9,9c0,1.3-2,1.3-2,0C4,8.9,8.9,4,15,4C16.3,4,16.3,6,15,6z"/>
</svg>
