<?xml version="1.0" encoding="utf-8"?>
<!-- Generator: Adobe Illustrator 19.2.1, SVG Export Plug-In . SVG Version: 6.00 Build 0)  -->
<svg version="1.1"
	 id="Layer_1" xmlns:cc="http://creativecommons.org/ns#" xmlns:dc="http://purl.org/dc/elements/1.1/" xmlns:inkscape="http://www.inkscape.org/namespaces/inkscape" xmlns:rdf="http://www.w3.org/1999/02/22-rdf-syntax-ns#" xmlns:sodipodi="http://sodipodi.sourceforge.net/DTD/sodipodi-0.dtd" xmlns:svg="http://www.w3.org/2000/svg"
	 xmlns="http://www.w3.org/2000/svg" xmlns:xlink="http://www.w3.org/1999/xlink" x="0px" y="0px" viewBox="0 0 86 86"
	 style="enable-background:new 0 0 86 86;" xml:space="preserve">
<style type="text/css">
	.st0{fill:#969696;}
</style>
<g transform="translate(0,-952.36218)">
	<path class="st0" d="M38,952.4c-3.3,0-6,2.7-6,6v3.8c-1.6,0.5-3.2,1.2-4.7,1.9l-2.7-2.7c-2.4-2.4-6.1-2.4-8.5,0L9,968.5
		c-2.4,2.4-2.4,6.1,0,8.5l2.7,2.7c-0.8,1.5-1.4,3.1-1.9,4.7H6c-3.3,0-6,2.7-6,6v10c0,3.3,2.7,6,6,6h3.8c0.5,1.6,1.2,3.2,1.9,4.7
		l-2.7,2.7c-2.4,2.4-2.4,6.1,0,8.5l7.1,7.1c2.4,2.4,6.1,2.4,8.5,0l2.7-2.7c1.5,0.8,3.1,1.4,4.7,1.9v3.8c0,3.3,2.7,6,6,6h10
		c3.3,0,6-2.7,6-6v-3.8c1.6-0.5,3.2-1.2,4.7-1.9l2.7,2.7c2.4,2.4,6.1,2.4,8.5,0l7.1-7.1c2.4-2.4,2.4-6.1,0-8.5l-2.7-2.7
		c0.8-1.5,1.4-3.1,1.9-4.7H80c3.3,0,6-2.7,6-6v-10c0-3.3-2.7-6-6-6h-3.8c-0.5-1.6-1.2-3.2-1.9-4.7L77,977c2.4-2.4,2.4-6.1,0-8.5
		l-7.1-7.1c-2.4-2.4-6.1-2.4-8.5,0l-2.7,2.7c-1.5-0.8-3.1-1.4-4.7-1.9v-3.8c0-3.3-2.7-6-6-6H38z M43,975.4c11,0,20,9,20,20
		s-9,20-20,20s-20-9-20-20C23,984.3,32,975.4,43,975.4z"/>
</g>
</svg>
